<svg xmlns="http://www.w3.org/2000/svg" width="150" height="150" viewBox="0 0 150 150">
  <path d="M100.4955,82.6461c-1.0592.06-1.4655.8184-2.0607,1.4393A48.9206,48.9206,0,0,0,94.538,87.76c-.0657,3.4159-14.4586,3.982-13.0262.1067-1.14-6.6571,5.4771-8.9544,8.8214-13.6814,3.7882-5.968,3.8554-13.7285,5.8809-20.4411-.3515-6.4579-9.27-7.2717-12.9259-10.4207-2.224-1.9179-4.1-.5533-5.7105-1.9389-1.4865-1.2792-4.4181-1.8817-4.4966,1.0471-2.2716,5.8111-4.8126,2.44-7.8118,8.2623-2.1734,4.831-7.442,6.0743-8.18,10.8068-.6041,3.87-2.7943,2.99-5.607,7.2863L49.94,67.9736c-.4617,5.551-5.9627,11.0154-3.4477,15.8816,1.533,2.9669-1.1869,6.5048,1.8465,7.43a45.4353,45.4353,0,0,0,3.2979,7.7815c9.6838,13.8125,27.38,10.467,40.29,2.1015,2.9409-1.9057,9.8858-1.57,6.712,3.61-.7517,1.4389-2.2609,2.5619-2.194,4.4477-.0545,1.1992-.79,1.7778-2.0863,1.8066-.3362,2.157-6.4875,5.5089-8.6669,5.8519-1.1239.0028-2.13.1558-2.5676,1.5044a30.1173,30.1173,0,0,1-27.9282,1.8279c-20.818.4117-30.9366-23.0372-30.1538-41.1131.0786-11.31,12.37-26.4769,18.9889-33.074l-.773-1.1134a6.6462,6.6462,0,0,1,4.2337-1.9926C45.3116,39.5617,62.5179,27.558,71.416,25.11q.0192.07.0452.1384a1.4294,1.4294,0,0,0,1.8468.8223A11.4374,11.4374,0,0,1,77.7281,25,61.13,61.13,0,0,1,101.11,32.5542a31.3934,31.3934,0,0,1,4.4433,6.0782,8.0885,8.0885,0,0,1,1.9685,5.69c-.169,3.4006-2.2439,5.3346-1.4588,8.8152a18.4956,18.4956,0,0,1-1.6386,9.18,82.3089,82.3089,0,0,0,.3764,10.25A15.5153,15.5153,0,0,1,100.4955,82.6461Zm21.035,40.8142c-1.8678-1.1984-3.4015,1.0561-3.4015,1.0561a2.0707,2.0707,0,0,0-2.5121.1473,2.7748,2.7748,0,0,1-4.0818-2.1349c-4.2505-.13-5.2025-4.377-5.7852-7.5684,4.8971-4.9193,6.6405-2.2488,10.5927-4.646,3.9054.3034,2.9881,3.32,5.5775,3.7981C126.9333,115.0379,125.111,121.6136,121.5305,123.46Z"/>
</svg>
