<svg xmlns="http://www.w3.org/2000/svg" width="150" height="50" viewBox="0 0 150 50">
    <g>
      <path d="M22.6419,3.8312A8.8183,8.8183,0,0,0,21.393,2.123,17.1823,17.1823,0,0,0,14.8209,0a3.2136,3.2136,0,0,0-1.2424.3009A.4018.4018,0,0,1,13.0594.07C13.0545.057,13.05.0441,13.0467.0309,10.5456.7189,5.7092,4.0923,6.322,5.037a1.8687,1.8687,0,0,0-1.19.56l.2173.313C3.4889,7.764.0339,12.0265.0118,15.205c-.22,5.08,2.6242,11.67,8.4757,11.5543a8.4665,8.4665,0,0,0,7.85-.5138c.123-.3789.4059-.422.7218-.4227.6126-.0964,2.3416-1.0384,2.4361-1.6446.3643-.0082.5711-.1708.5864-.5077-.0188-.53.4054-.8456.6167-1.25.8921-1.4557-1.06-1.55-1.8866-1.0144-3.629,2.351-8.6029,3.2912-11.3249-.5906a12.7688,12.7688,0,0,1-.927-2.1869c-.8526-.26-.0881-1.2543-.519-2.0881-.7069-1.3676.8393-2.9034.9692-4.4634l.4334.2286c.7907-1.2073,1.4063-.96,1.5761-2.0477.2074-1.33,1.6883-1.6794,2.2992-3.0371.843-1.6362,1.5572-.6889,2.1957-2.322.0221-.8232.8461-.6538,1.2639-.2943.4527.3894.98.0059,1.6051.5449,1.0276.885,3.5345,1.1137,3.6333,2.9286-.5693,1.8865-.5882,4.0675-1.653,5.7447-.94,1.3284-2.8,1.9741-2.48,3.845-.4026,1.0891,3.6429.93,3.6614-.03a13.7165,13.7165,0,0,1,1.0953-1.0326c.1673-.1745.2815-.3877.5792-.4045a4.36,4.36,0,0,0,1.21-2.8322,23.147,23.147,0,0,1-.1058-2.8807,5.1973,5.1973,0,0,0,.4606-2.58c-.2207-.9782.3626-1.5218.41-2.4774A2.273,2.273,0,0,0,22.6419,3.8312Z"/>
      <path d="M27.133,27.671c1.0064-.519,1.5186-2.367.11-2.6271-.7278-.1344-.47-.9821-1.5677-1.0674-1.1109.6737-1.6009-.0768-2.9774,1.3057.1637.8969.4313,2.0906,1.6261,2.127a.78.78,0,0,0,1.1473.6.5821.5821,0,0,1,.7061-.0414S26.608,27.3342,27.133,27.671Z"/>
      <path d="M68.6209,12.6223c-1.4371.1837-1.6056,1.0762-3.17,1.13-4.0009.1368-4.8233.0358-6.0368,4.1124C58.5913,19.67,57.92,21.694,57.8623,18.2c-.06-.5375-.2659-1.29.2192-1.6988,1.2936-1.4984-.9627-3.3375-2.281-3.9268-1.7071-1.0133-4.3725,2.4513-6.9469,2.5514-.0086-.0313-.0567-.2346-.0652-.266a.9018.9018,0,0,0,.4334-1.3244c-.09-2.8125.7433-5.1827-.3087-7.9367-2.208-4.3834-7.2645-5.1114-9.81-.529-2.3812,1.9917-3.3979,4.8342-4.6675,7.5068-1.2095,1.4233-.9983,3.61-1.7909,5.2266-.8247,1.3233-.67,2.8781-1.2822,4.2664-.52,1.3451-1.4819,3.8995.9462,3.3,1.8448.5064.9814-1.43,1.8317-2.0039a1.9722,1.9722,0,0,0,1.0367-1.5166,1.19,1.19,0,0,0,.6224-1.481c4.0241.7652,4.882.3115,6.2718.7454.7318,2.4537-.73,6.3488,1.0421,7.8876-.2879.5141.5735.909.5735.909l.4725-.1672.2181.257.47-.2356c.8289.2356,1.7291.3958,2.06-.5225.3654.002.3637-.2675.4365-.5166.13-.4435.2148-.542.7121-.5575.9568-.6792.1673-1.253.62-2.0356,1.1413-1.971-1.6544-4.859.8362-6.2888l-.0861-.4381c1.7678.3093,1.5027-1.0826,3.0821-1.0573.36-.2065.5789-.74,1.01-.7723-.4024,4.4234,5.243,9.5309,7.6668,3.7165a24.3718,24.3718,0,0,0,1.651-4.167c.2321-.7974.2032-.6958.9585-.4914a10.2284,10.2284,0,0,0,2.8012.31,62.29,62.29,0,0,0-2.3023,9.84c-.041.247.3017.7192.5017.56.5483-.4365.7292.2457,1.07-.02a.3156.3156,0,0,1,.4956.2248.7972.7972,0,0,0,.7274-.4925l.281.1416a.4632.4632,0,0,1,.5585-.3423.4567.4567,0,0,1,.0776.0261c.28.0723.5025-.2779.3466-.5775.0951-.4628.2518-.6562.4482-.73.3875-.1447.8858.2935,1.2771-.1214.4967-.6122.3949-1.5335,1.05-2.0481a1.5473,1.5473,0,0,0,.8048-1.3722,2.8023,2.8023,0,0,1,.6444-1.7115c.6337-.0887.57-.81,1.1811-1.0883a.3164.3164,0,0,0,.54-.1851c.6437.0626.7922-.6781,1.1528-1.0765.4667-.7838-.548-1.3735-.8266-1.9536A6.5207,6.5207,0,0,0,68.6209,12.6223ZM44.0624,8.6266c-.3336,2.4146-.7971,4.824-1.3384,7.1967-.1443,1.6423-4.5079.969-5.7894,1.051-.0249-.6212-.5354-1.31.109-1.6889.32-.3368.5118-.7712.9064-1.03,1.3051-2.3526,2.4163-5.0635,4.5577-6.8814.1809-.2946.6561-.3081.66-.7671.0756-.2575.48-.45.7389-.588A5.104,5.104,0,0,1,44.0624,8.6266Z"/>
      <path d="M74.1343,4.5038a.6826.6826,0,0,0-.9435-.2049q-.0255.0164-.0493.0349a1.5349,1.5349,0,0,0-2.3239.2838c-.9729.3309-.4045,1.3959.5172,2.3222,1.26,1.2662,2.6747,1.2061,3.5562.3118a12.5637,12.5637,0,0,0,1.1633-1.5708A2.213,2.213,0,0,0,74.1343,4.5038Z"/>
      <path d="M95.1343,7.17a.5562.5562,0,0,0-.1156-.0969c-.1182-1.2251-.4019-3.48-.9705-4.0335-1.315-.5886-1.78-1.9236-3.2667-1.8812-2.2163.0631-2,4.1235-2.2821,6.0837-.4848,3.3642-1.665,8.05-2.1234,12.1139.4729,1.9376-1.494,1.3644-2.9077.9324a1.5062,1.5062,0,0,1-1.0664-2.1057c-.0456-.6211-.3106-1.4767.3061-1.904a.6.6,0,0,0,.2045-.4271c.0583-.5708.7223-.342.8677-.9059,1.9541.198,1.1931-.7079,2.228-1,.6585-.5015.712-.8872.4176-1.1724-.7954-.771-4.131-1.3345-4.923-.4189-4.8148.8477-5.1445,7.9872-1.2471,10.03a14.89,14.89,0,0,0,3.9237,1.2845.7808.7808,0,0,1,.9613-.27,3.5894,3.5894,0,0,0,1.6661,2.8427s.8969-.1065.85.4124c-.0273.3028.3047.464.6835.2908.2285-.1046.4118-.5076,1.0934-.3791.0074.7432,1.3029,1.0428,1.9881.5682.8449-.6525,1.6375-.3656,2.2658-1.03l-.0183-.5636c.8779.0862.92-.5358.7468-.9674.7536-.4529.84-2.1782-.04-3.715A4.4467,4.4467,0,0,0,94.7,19.506l-.4812-.1334a4.0537,4.0537,0,0,1,.2407-1.102c.5049-1.3641.2767-3.8107.4136-4.6534.3095-1.0769-.1842-2.1869.2459-3.2172A3.3154,3.3154,0,0,0,95.51,8.72a1.259,1.259,0,0,0-.4127-.7549A.5626.5626,0,0,0,95.1343,7.17Z"/>
      <path d="M131.1221,16.2639a3.0324,3.0324,0,0,0-.6831-1.2988,3.4939,3.4939,0,0,0-3.2237-.8092,2.3586,2.3586,0,0,0-1.0886.5441,6.611,6.611,0,0,0-4.0709,2.1948c-5.5183-3.6349-8.3955-1.26-12.0014,3.2694-.0767-.0539-.2994-.1949-.3761-.2489a3.2283,3.2283,0,0,0,.6384-2.4571c-.1824-.6126.531-1.0915-.14-1.8269-1.245-.2146-1.5735-1.6486-3.4431-1.472-1.5522.1465-2.3679,5.29-2.0807,6.6418-.9358.0141-2.2922.4709-3.1331-.1568a1.9076,1.9076,0,0,1-.6748-1.2223l.2568-.1332c.4837-.73-.2246-1.81-.19-2.6047a1.7945,1.7945,0,0,1,2.42-1.57.46.46,0,0,0,.5352-.11c.2268-.2557.3289-.6708.6726-.449.3092.2.5149-.2407.5149-.2407a.6715.6715,0,0,0,.5122-.4767c.2337-.7967-.5351-1.0487-1.114-1.0715-1.1977-.7486-3.6731-.9023-4.8591.4716a5.076,5.076,0,0,0-2.29,1.9721c-1.451,2.5933-.4091,6.8923,2.3731,8.1834,1.6938.0382,2.1636.9269,3.2753.0022.3574-.13,1.1925-.0312,1.2059-.6271-.0828-.65.443-.6453.9057-.8623,1.016,2.0575,3.9121,3.5846,5.9681,2.0639,2.817-.393,3.5244-3.6368,5.7217-5.305a.6812.6812,0,0,0,.8745-.4039l.013-.0387c-.1654,2.9536-1.9739,4.4372-1.6609,7.1471l.2682.1313a2.9132,2.9132,0,0,1,2.6618-1.0478l.1677-.3377c.9939.6243,2.932,2.1075,3.2958.1391.9315.0331,1.8494-.4984,1.4546-1.2948a10.1,10.1,0,0,1,2.4359-5.0707c.4485-.3948.8568-.1479.9355.665.1474,1.522-.209,4.79.686,7.97a3.25,3.25,0,0,0,.33,2.304c.1281.28.4317.1451.6051.0389l.1.22c1.59-.743,1.566-1.1756,2.6112-2.0417.4087.0251.6453-.1228.6673-.5543.4809-.3882.2134-.9177.5669-1.3457.8963-.7941.1262-1.542.1693-2.2253C132.998,21.9329,132.77,16.7,131.1221,16.2639Z"/>
      <path d="M149.69,21.4466c.75-3.35-2.2638-5.767-5.2958-6.5156-1.64.4164-5.3656-1.3441-6.3628.6186-2.7413,1.5314-2.5416,5.49-.6388,7.669.4484,1.3284,2.7544,2.9867,3.4879,1.6621-.1056-.5069.8976-.7646.8762-.2038.0416.15.289.2492.4474.2711a1.4254,1.4254,0,0,1,.8894.5128c.2567.217.68.2265.7749.6566.2284.3084,1.3422.8493,1.6433.5058v-.475a.8938.8938,0,0,0,1.3789-.424s.5508.606.97.1082c.3722-.4417,1.112-.3782,1.31-1.0941,1.0017-.4228.4307-1.4148.76-2.1942A1.0152,1.0152,0,0,0,149.69,21.4466Zm-6.9377.0953c-.74.2608-.5769.9827-1.4017.9743-.952-.01-1.0808-1.5034-1.2437-2.21-.1407-.6108.62-.4905.8118-1.3784.3134-1.4517,2.4193.4412,3.106-.8313,1.0581.2288.0868,1.8584.6492,2.6511C144.4815,21.45,143.395,21.3155,142.7527,21.5419Z"/>
    </g>
    <g>
      <path d="M12.1772,48.662c-1.9982,0-3.2243-1.72-3.2243-4.5544s1.2412-4.5544,3.27-4.5544a2.7422,2.7422,0,0,1,2.8457,2.7229H16.506a4.0546,4.0546,0,0,0-4.2835-4.06c-2.9213,0-4.7225,2.2452-4.7225,5.892C7.5,47.77,9.2861,50,12.1772,50a4.1676,4.1676,0,0,0,4.3892-4.1248H15.1135A2.8881,2.8881,0,0,1,12.1772,48.662Z"/>
      <path d="M24.23,44.6012c0-2.1338-1.15-3.1371-3.0273-3.1371a2.7824,2.7824,0,0,0-3.0877,2.6912h1.3318a1.5878,1.5878,0,0,1,1.7559-1.6084c1.0294,0,1.7408.5574,1.7408,1.895v.3188c-.6057.0477-1.5442.1592-2.225.27-2.21.3665-2.9216,1.2106-2.9216,2.5482a2.3646,2.3646,0,0,0,2.6035,2.3727,2.9288,2.9288,0,0,0,2.6642-1.3535h.03a6.189,6.189,0,0,0,.1061,1.1784h1.2106a10.0814,10.0814,0,0,1-.1815-2.07Zm-1.2865,1.72a2.39,2.39,0,0,1-.6208,1.9109,2.1468,2.1468,0,0,1-1.5891.6373A1.38,1.38,0,0,1,19.16,47.4836c0-.7961.4543-1.1943,1.771-1.4012.59-.1115,1.4227-.2072,2.0133-.2548Z"/>
      <path d="M27.6577,42.9292h-.03V41.6869H26.3561v8.09h1.3318V45.6525c0-1.7839.8174-2.771,2.2706-2.771.1664,0,.3631.0318.53.0477V41.671a2.2442,2.2442,0,0,0-.56-.0635A2.4736,2.4736,0,0,0,27.6577,42.9292Z"/>
      <rect x="31.8362" y="38.4383" width="1.3318" height="11.3386"/>
      <path d="M42.4455,38.4383l-4.087,11.3386H39.842l1.1808-3.376h4.7526l1.1654,3.376h1.4985l-4.102-11.3386Zm2.8759,6.6726h-3.86l.363-1.0351c.5449-1.5766,1.0446-3.0417,1.5593-4.6183h.03c.5147,1.5766,1.014,3.0417,1.5589,4.6183Z"/>
      <path d="M52.888,45.0791c-.3936,1.2261-.7415,2.3727-1.1049,3.5988h-.03c-.3634-1.2261-.7265-2.3727-1.12-3.5988l-1.09-3.3922H48.12l2.785,8.09h1.7254l2.785-8.09H53.993Z"/>
      <rect x="56.6498" y="38.4383" width="1.3321" height="1.5766"/>
      <rect x="56.6498" y="41.6869" width="1.3321" height="8.09"/>
      <path d="M65.3316,42.8018h-.03A2.5915,2.5915,0,0,0,62.955,41.48c-1.9526,0-3.2088,1.6561-3.2088,4.236s1.2562,4.2519,3.2242,4.2519a2.578,2.578,0,0,0,2.3612-1.3694h.03v1.1784h1.3016V38.4383H65.3316Zm-2.0283,6.0357c-1.317,0-2.1646-1.2264-2.1646-3.1215s.8476-3.1052,2.1646-3.1052c1.2713,0,2.1038,1.1943,2.1038,3.1052C65.4071,47.6428,64.5746,48.8375,63.3033,48.8375Z"/>
      <path d="M74.7646,44.6012c0-2.1338-1.15-3.1371-3.0269-3.1371a2.7826,2.7826,0,0,0-3.088,2.6912h1.3321a1.5875,1.5875,0,0,1,1.7559-1.6084c1.0291,0,1.74.5574,1.74,1.895v.3188c-.6054.0477-1.5439.1592-2.225.27-2.21.3665-2.9213,1.2106-2.9213,2.5482a2.3644,2.3644,0,0,0,2.6035,2.3727,2.9283,2.9283,0,0,0,2.6639-1.3535h.03a6.197,6.197,0,0,0,.106,1.1784h1.211a10.0765,10.0765,0,0,1-.1819-2.07Zm-1.2864,1.72a2.3908,2.3908,0,0,1-.6205,1.9109,2.1471,2.1471,0,0,1-1.5894.6373,1.38,1.38,0,0,1-1.5741-1.3857c0-.7961.454-1.1943,1.771-1.4012.59-.1115,1.4227-.2072,2.013-.2548Z"/>
      <path d="M80.5384,41.5118a2.6866,2.6866,0,0,0-2.331,1.2423h-.03V41.6869H76.89v8.09h1.3321V45.1427c0-1.6243.908-2.4843,1.9978-2.4843,1.105,0,1.771.6051,1.771,2.2933v4.8252h1.3321V44.84C83.3234,42.6267,82.294,41.5118,80.5384,41.5118Z"/>
      <path d="M88.6547,41.4641c-2.2555,0-3.648,1.6243-3.648,4.2678S86.3992,50,88.6547,50s3.6628-1.6246,3.6628-4.2681S90.91,41.4641,88.6547,41.4641Zm0,7.3893c-1.3925,0-2.2555-1.1947-2.2555-3.1215s.863-3.1211,2.2555-3.1211c1.4076,0,2.27,1.1943,2.27,3.1211S90.0623,48.8534,88.6547,48.8534Z"/>
      <path d="M99.4,42.2761a1.8339,1.8339,0,1,0,1.74,1.8315A1.7758,1.7758,0,0,0,99.4,42.2761Z"/>
      <path d="M110.0391,38.4383l-4.0869,11.3386h1.4834l1.1808-3.376h4.7527l1.1653,3.376h1.4986l-4.1021-11.3386Zm2.876,6.6726h-3.86l.3631-1.0351c.5449-1.5766,1.0445-3.0417,1.5592-4.6183h.03c.5147,1.5766,1.014,3.0417,1.5589,4.6183Z"/>
      <path d="M118.6609,42.9292H118.63V41.6869H117.359v8.09h1.3321V45.6525c0-1.7839.8174-2.771,2.27-2.771.1667,0,.3634.0318.53.0477V41.671a2.2427,2.2427,0,0,0-.56-.0635A2.4732,2.4732,0,0,0,118.6609,42.9292Z"/>
      <path d="M125.0249,47.3721v-4.57h1.5287V41.6869h-1.5287V39.7283h-1.3322v1.9586h-1.3321v1.1149h1.3321v4.7136c0,1.6723.6208,2.325,2.0888,2.325a3.5589,3.5589,0,0,0,.8476-.0953V48.5985a1.8106,1.8106,0,0,1-.5449.0794C125.3124,48.6779,125.0249,48.2959,125.0249,47.3721Z"/>
      <rect x="128.0923" y="38.4383" width="1.3318" height="1.5766"/>
      <rect x="128.0923" y="41.6869" width="1.3318" height="8.09"/>
      <path d="M134.49,44.9994c-1.2865-.3185-1.8465-.4618-1.8465-1.3059,0-.7007.5751-1.1466,1.4985-1.1466a1.5362,1.5362,0,0,1,1.71,1.6723h1.3016c0-1.7835-1.12-2.7551-2.9968-2.7551-1.68,0-2.8457.9553-2.8457,2.341,0,1.7676,1.317,2.0384,2.6035,2.3727,1.4834.3823,2.1189.5574,2.1189,1.4972,0,.7325-.666,1.21-1.6649,1.21a1.6758,1.6758,0,0,1-1.8919-1.7993H131.13c.0151,1.895,1.211,2.9142,3.224,2.9142,1.8619,0,3.0423-.9715,3.0423-2.4207C137.3958,45.7,135.8973,45.3658,134.49,44.9994Z"/>
      <path d="M140.8954,47.3721v-4.57h1.5288V41.6869h-1.5288V39.7283h-1.3318v1.9586h-1.3321v1.1149h1.3321v4.7136c0,1.6723.62,2.325,2.0888,2.325a3.5613,3.5613,0,0,0,.8476-.0953V48.5985a1.8106,1.8106,0,0,1-.5449.0794C141.1833,48.6779,140.8954,48.2959,140.8954,47.3721Z"/>
    </g>
</svg>
