<svg xmlns="http://www.w3.org/2000/svg" width="150" height="50" viewBox="0 0 150 50">
  <g>
    <path d="M22.3246,10.4878a5.1971,5.1971,0,0,0,.4606-2.58c-.2207-.9782.3625-1.5217.41-2.4774a2.2728,2.2728,0,0,0-.5533-1.5992A8.8213,8.8213,0,0,0,21.393,2.123,17.1845,17.1845,0,0,0,14.8209,0a3.2154,3.2154,0,0,0-1.2424.3009A.4019.4019,0,0,1,13.0594.07C13.0545.057,13.05.0441,13.0467.0309,10.5456.7189,5.7092,4.0924,6.322,5.0371a1.8687,1.8687,0,0,0-1.19.56l.2173.3129C3.4889,7.764.0339,12.0265.0118,15.205c-.22,5.08,2.6242,11.67,8.4758,11.5543a8.4665,8.4665,0,0,0,7.85-.5137c.1229-.379.4058-.422.7217-.4228.6126-.0964,2.3416-1.0384,2.4361-1.6446.3643-.0081.5711-.1707.5864-.5077-.0188-.53.4054-.8456.6167-1.25.8921-1.4557-1.06-1.55-1.8866-1.0144-3.629,2.351-8.6029,3.2912-11.3249-.5906a12.7767,12.7767,0,0,1-.927-2.1869c-.8526-.26-.0881-1.2543-.519-2.0881-.7069-1.3676.8393-2.9033.9691-4.4633l.4335.2285c.7907-1.2073,1.4063-.96,1.5761-2.0477.2074-1.33,1.6883-1.6794,2.2992-3.0371.843-1.6362,1.5572-.6889,2.1957-2.322.0221-.8231.8461-.6538,1.2639-.2943.4526.3894.98.0059,1.6052.5449,1.0275.885,3.5344,1.1137,3.6332,2.9286-.5693,1.8865-.5882,4.0675-1.653,5.7447-.94,1.3285-2.8,1.9741-2.48,3.845-.4027,1.0891,3.6429.93,3.6614-.03a13.7336,13.7336,0,0,1,1.0953-1.0326c.1673-.1745.2815-.3877.5792-.4045a4.3594,4.3594,0,0,0,1.21-2.8322A23.147,23.147,0,0,1,22.3246,10.4878Z"/>
    <path d="M27.2425,25.0439c-.7278-.1344-.47-.9821-1.5677-1.0674-1.1109.6737-1.6009-.0768-2.9775,1.3057.1638.8969.4314,2.0906,1.6262,2.127a.78.78,0,0,0,1.1473.6.5821.5821,0,0,1,.7061-.0414s.4311-.6336.9561-.2968C28.1394,27.152,28.6516,25.304,27.2425,25.0439Z"/>
    <path d="M149.6905,21.4466c.75-3.35-2.2639-5.767-5.2959-6.5156-1.64.4164-5.3656-1.3441-6.3628.6186-2.7413,1.5314-2.5415,5.49-.6388,7.669.4484,1.3284,2.7544,2.9867,3.4879,1.6621-.1056-.5069.8977-.7645.8763-.2038.0416.15.289.2493.4473.2711a1.4251,1.4251,0,0,1,.8894.5128c.2567.217.68.2265.775.6566.2283.3084,1.3421.8493,1.6432.5058v-.475a.8937.8937,0,0,0,1.3789-.4239s.5508.6059.97.1081c.3723-.4416,1.1121-.3782,1.31-1.0941,1.0017-.4228.4307-1.4147.76-2.1942A1.0156,1.0156,0,0,0,149.6905,21.4466Zm-5.0162-.699c-.1928.7023-1.2793.5679-1.9215.7943-.74.2608-.5769.9827-1.4018.9743-.952-.01-1.0808-1.5034-1.2437-2.21-.1408-.6108.62-.4905.8119-1.3784.3134-1.4517,2.4192.4412,3.106-.8313,1.058.2288.0867,1.8584.6491,2.6511Z"/>
    <path d="M95.0974,7.9652a.5628.5628,0,0,0-.0786-.8918c-.1182-1.2251-.4019-3.48-.9707-4.0335-1.315-.5886-1.78-1.9236-3.2666-1.8812-2.2163.0631-2,4.1235-2.2821,6.0837-.4847,3.3642-1.665,8.05-2.1233,12.1139.4728,1.9376-1.4942,1.3644-2.9078.9324a1.506,1.506,0,0,1-1.0664-2.1056c-.0456-.6212-.3106-1.4768.3061-1.9041a.6.6,0,0,0,.2045-.4271c.0583-.5708.7223-.3419.8677-.9059,1.954.198,1.1931-.7079,2.228-1,.6586-.5015.712-.8872.4177-1.1724-.7955-.771-4.1311-1.3344-4.9231-.4189-4.8148.8477-5.1445,7.9872-1.2471,10.03a14.89,14.89,0,0,0,3.9237,1.2845.7811.7811,0,0,1,.9613-.27,3.5891,3.5891,0,0,0,1.6661,2.8427s.8969-.1065.85.4124c-.0273.3028.3048.464.6835.2908.2285-.1046.4118-.5076,1.0934-.3791.0074.7432,1.3029,1.0428,1.9881.5682.8449-.6525,1.6375-.3656,2.2657-1.03l-.0183-.5636c.8781.0862.92-.5358.747-.9674.7536-.4529.84-2.1782-.04-3.715A4.4455,4.4455,0,0,0,94.7,19.5061l-.4812-.1335a4.05,4.05,0,0,1,.2407-1.102c.5049-1.3641.2767-3.8107.4136-4.6533.3095-1.077-.1843-2.187.2459-3.2173A3.3175,3.3175,0,0,0,95.51,8.72,1.2591,1.2591,0,0,0,95.0974,7.9652Z"/>
    <path d="M74.891,7.2517a12.5574,12.5574,0,0,0,1.1633-1.5709,2.213,2.213,0,0,0-1.92-1.177.6828.6828,0,0,0-.9435-.2049q-.0255.0164-.0493.0349a1.5349,1.5349,0,0,0-2.3239.2838c-.9729.331-.4045,1.396.5173,2.3222C72.5946,8.206,74.01,8.1459,74.891,7.2517Z"/>
    <path d="M68.6209,12.6223c-1.4371.1837-1.6056,1.0763-3.17,1.13-4.0009.1368-4.8233.0358-6.0368,4.1125-.8228,1.805-1.4938,3.8292-1.5518.3354-.06-.5375-.2659-1.29.2192-1.6988,1.2936-1.4984-.9627-3.3375-2.2809-3.9268-1.7072-1.0133-4.3726,2.4513-6.947,2.5514-.0086-.0313-.0567-.2346-.0652-.2659a.9018.9018,0,0,0,.4334-1.3245c-.09-2.8125.7433-5.1827-.3086-7.9367-2.2081-4.3834-7.2646-5.1114-9.81-.5289-2.3811,1.9917-3.3978,4.8341-4.6674,7.5067-1.2095,1.4233-.9983,3.61-1.7908,5.2266-.8248,1.3234-.67,2.8781-1.2824,4.2664-.52,1.3451-1.4818,3.8995.9464,3.3,1.8447.5064.9813-1.43,1.8316-2.0038a1.9724,1.9724,0,0,0,1.0367-1.5167,1.19,1.19,0,0,0,.6224-1.481c4.0241.7652,4.8821.3116,6.2718.7454.7318,2.4537-.73,6.3488,1.0421,7.8876-.2879.5141.5735.909.5735.909l.4725-.1671L44.3779,30l.47-.2356c.8288.2356,1.729.3958,2.06-.5225.3656.002.3639-.2675.4366-.5166.13-.4435.2148-.5419.7121-.5574.9568-.6792.1673-1.2531.62-2.0357,1.1413-1.971-1.6544-4.859.8362-6.2888l-.0861-.4381c1.7678.3093,1.5027-1.0826,3.0821-1.0573.36-.2065.5789-.74,1.01-.7723-.4023,4.4234,5.2431,9.5309,7.6669,3.7165a24.3793,24.3793,0,0,0,1.6511-4.1669c.2321-.7975.2031-.6959.9584-.4915a10.2284,10.2284,0,0,0,2.8012.31,62.2921,62.2921,0,0,0-2.3023,9.84c-.041.247.3017.7192.5017.56.5483-.4364.7292.2457,1.07-.02a.3156.3156,0,0,1,.4956.2249.7974.7974,0,0,0,.7274-.4926l.281.1416a.4629.4629,0,0,1,.6361-.3162c.28.0723.5025-.2779.3466-.5775.0951-.4628.2518-.6562.4481-.73.3876-.1447.8859.2935,1.2771-.1214.4969-.6122.3949-1.5335,1.05-2.0481a1.5474,1.5474,0,0,0,.8047-1.3722,2.8023,2.8023,0,0,1,.6444-1.7115c.6337-.0887.57-.81,1.1811-1.0883a.3164.3164,0,0,0,.54-.1851c.6437.0626.7922-.6781,1.1528-1.0765.4667-.7838-.548-1.3735-.8266-1.9536A6.5207,6.5207,0,0,0,68.6209,12.6223ZM44.0624,8.6267c-.3336,2.4145-.7971,4.8239-1.3384,7.1966-.1443,1.6423-4.5079.969-5.7894,1.051-.0249-.6212-.5354-1.31.109-1.6889.32-.3368.5118-.7711.9063-1.03,1.3051-2.3526,2.4165-5.0635,4.5578-6.8814.1809-.2946.6561-.3081.66-.7671.0756-.2575.48-.45.7389-.5879A5.1039,5.1039,0,0,1,44.0624,8.6267Z"/>
    <path d="M132.9357,22.92c.0623-.9871-.1659-6.22-1.8136-6.6561a3.032,3.032,0,0,0-.6831-1.2987,3.4933,3.4933,0,0,0-3.2237-.8092,2.3572,2.3572,0,0,0-1.0885.544,6.6105,6.6105,0,0,0-4.0709,2.1948c-5.5184-3.6349-8.3956-1.26-12.0015,3.2694-.0767-.0539-.2994-.1949-.3761-.2488a3.229,3.229,0,0,0,.6385-2.4572c-.1825-.6126.5309-1.0915-.14-1.8269-1.2449-.2146-1.5734-1.6486-3.443-1.472-1.5522.1466-2.3678,5.29-2.0807,6.6419-.9357.014-2.2922.4708-3.1331-.1568a1.908,1.908,0,0,1-.6748-1.2224l.2568-.1332c.4837-.73-.2246-1.8095-.19-2.6046a1.7946,1.7946,0,0,1,2.42-1.57.46.46,0,0,0,.5352-.11c.2268-.2557.3289-.6708.6725-.449.3093.2.515-.2407.515-.2407a.6718.6718,0,0,0,.5122-.4767c.2336-.7967-.5351-1.0487-1.114-1.0715-1.1977-.7486-3.6732-.9023-4.8592.4716a5.0763,5.0763,0,0,0-2.29,1.9721c-1.451,2.5934-.4092,6.8923,2.373,8.1834,1.6938.0382,2.1636.9269,3.2753.0022.3575-.13,1.1925-.0312,1.2059-.6271-.0828-.65.4431-.6453.9058-.8622,1.0159,2.0575,3.912,3.5845,5.9681,2.0638,2.8169-.3929,3.5243-3.6368,5.7216-5.305a.6811.6811,0,0,0,.8745-.4039l.013-.0387c-.1653,2.9536-1.9739,4.4372-1.6609,7.1471l.2682.1313a2.9132,2.9132,0,0,1,2.6618-1.0478l.1677-.3377c.994.6243,2.932,2.1075,3.2958.1391.9315.0331,1.8494-.4984,1.4546-1.2948a10.1,10.1,0,0,1,2.4359-5.0707c.4485-.3948.8568-.1478.9355.665.1474,1.522-.209,4.79.686,7.97a3.25,3.25,0,0,0,.33,2.304c.128.28.4316.1452.605.039l.1.22c1.59-.743,1.566-1.1756,2.6112-2.0416.4087.025.6453-.1228.6673-.5544.4809-.3882.2134-.9177.5669-1.3457C133.6627,24.3512,132.8926,23.6033,132.9357,22.92Z"/>
  </g>
  <g>
    <path d="M9.3506,42.3779H7.8576A2.7879,2.7879,0,0,0,4.903,39.6907c-2.1058,0-3.3943,1.6971-3.3943,4.4947S2.7815,48.68,4.8559,48.68a2.9388,2.9388,0,0,0,3.0488-2.75H9.4135A4.2407,4.2407,0,0,1,4.8559,50C1.8542,50,0,47.8,0,44.1854c0-3.5989,1.87-5.815,4.903-5.815A4.12,4.12,0,0,1,9.3506,42.3779Z"/>
    <path d="M17.3864,44.6726v3.0645a9.4829,9.4829,0,0,0,.1884,2.043H16.3174a5.8351,5.8351,0,0,1-.11-1.1628h-.0314A3.0882,3.0882,0,0,1,13.41,49.9529a2.4062,2.4062,0,0,1-2.7034-2.3414c0-1.32.7389-2.1533,3.0332-2.5145.7074-.11,1.6818-.22,2.31-.2674v-.3141a1.6506,1.6506,0,0,0-1.8074-1.87A1.6151,1.6151,0,0,0,12.42,44.2325H11.0371c.0785-1.5087,1.1786-2.6559,3.2059-2.6559A2.8,2.8,0,0,1,17.3864,44.6726Zm-1.336,1.21c-.6128.0472-1.4773.1417-2.09.2517-1.3674.2041-1.8389.5971-1.8389,1.3831,0,.8169.5972,1.367,1.6344,1.367A2.2125,2.2125,0,0,0,16.05,46.37Z"/>
    <path d="M23.9006,41.7808v1.2417c-.1731-.0157-.3773-.0474-.55-.0474-1.5087,0-2.3574.9744-2.3574,2.7347v4.07H19.61V41.7965h1.32v1.226h.0314a2.594,2.594,0,0,1,2.3574-1.3045A2.4454,2.4454,0,0,1,23.9006,41.7808Z"/>
    <path d="M25.3165,49.78V38.5906H26.7V49.78Z"/>
    <path d="M34.8559,46.4483,33.63,49.78H32.09l4.2434-11.1895h1.9645L42.5565,49.78H41.0007l-1.21-3.3318Zm4.1018-2.2943c-.5658-1.5558-1.0844-3.0017-1.6187-4.5576h-.0314c-.5343,1.5559-1.0529,3.0018-1.6186,4.5576l-.3773,1.0215h4.0075Z"/>
    <path d="M45.1338,49.78l-2.8914-7.9836h1.477l1.1318,3.3476c.4086,1.21.7855,2.3414,1.1628,3.5517h.0314c.3773-1.21.7389-2.3418,1.1472-3.5517L48.34,41.7965h1.4773L46.9256,49.78Z"/>
    <path d="M51.1151,40.1465V38.5906h1.3831v1.5559Zm0,9.6336V41.7965h1.3831V49.78Z"/>
    <path d="M60.177,49.78V48.6173h-.0314a2.7021,2.7021,0,0,1-2.4517,1.3513c-2.043,0-3.3475-1.65-3.3475-4.196s1.3045-4.18,3.3318-4.18a2.72,2.72,0,0,1,2.4357,1.3042h.0317V38.5906h1.3827V49.78Zm-4.3848-4.0075c0,1.87.88,3.08,2.2472,3.08,1.32,0,2.1847-1.1786,2.1847-3.08,0-1.886-.8644-3.0645-2.1847-3.0645C56.6724,42.7081,55.7922,43.9023,55.7922,45.7726Z"/>
    <path d="M69.9567,44.6726v3.0645a9.4829,9.4829,0,0,0,.1884,2.043h-1.257a5.8279,5.8279,0,0,1-.11-1.1628h-.0314a3.0883,3.0883,0,0,1-2.7661,1.3356,2.406,2.406,0,0,1-2.703-2.3414c0-1.32.7385-2.1533,3.0331-2.5145.7071-.11,1.6815-.22,2.31-.2674v-.3141a1.65,1.65,0,0,0-1.8071-1.87,1.6154,1.6154,0,0,0-1.8231,1.5872H63.6074c.0789-1.5087,1.1789-2.6559,3.2062-2.6559A2.8,2.8,0,0,1,69.9567,44.6726Zm-1.336,1.21c-.6128.0472-1.4773.1417-2.09.2517-1.367.2041-1.8385.5971-1.8385,1.3831,0,.8169.5971,1.367,1.6343,1.367A2.2125,2.2125,0,0,0,68.6207,46.37Z"/>
    <path d="M78.86,44.9082V49.78H77.4767V45.0184c0-1.6661-.6914-2.2632-1.8385-2.2632-1.1318,0-2.0748.8488-2.0748,2.4517V49.78H72.1807V41.7965h1.3356v1.0529h.0314a2.8291,2.8291,0,0,1,2.42-1.2256C77.7911,41.6238,78.86,42.7238,78.86,44.9082Z"/>
    <path d="M88.2136,45.7883c0,2.6088-1.4616,4.2117-3.803,4.2117s-3.7877-1.6029-3.7877-4.2117,1.4459-4.2117,3.7877-4.2117S88.2136,43.18,88.2136,45.7883Zm-6.1448,0c0,1.9017.8959,3.08,2.3418,3.08,1.4612,0,2.3571-1.1786,2.3571-3.08s-.8959-3.08-2.3571-3.08C82.9647,42.7081,82.0688,43.8866,82.0688,45.7883Z"/>
    <path d="M95.7886,46.4483,94.5625,49.78h-1.54l4.2435-11.1895H99.23L103.4891,49.78h-1.5558l-1.21-3.3318ZM99.89,44.154c-.5657-1.5558-1.0843-3.0017-1.6186-4.5576H98.24c-.5344,1.5559-1.053,3.0018-1.6187,4.5576l-.3773,1.0215h4.0076Z"/>
    <path d="M109.1721,41.7808v1.2417c-.1731-.0157-.3773-.0474-.55-.0474-1.5087,0-2.3574.9744-2.3574,2.7347v4.07h-1.3831V41.7965h1.32v1.226h.0314a2.594,2.594,0,0,1,2.3574-1.3045A2.4454,2.4454,0,0,1,109.1721,41.7808Z"/>
    <path d="M114.5216,48.6173v1.1314a3.8768,3.8768,0,0,1-.88.0943c-1.5244,0-2.169-.6443-2.169-2.2943V42.8965H110.09v-1.1h1.3827V39.8634h1.3831v1.9331h1.5872v1.1h-1.5872v4.51c0,.9115.2987,1.2888,1.1,1.2888A1.9645,1.9645,0,0,0,114.5216,48.6173Z"/>
    <path d="M123.2676,49.78l-.943-3.4575c-.2987-1.1628-.5971-2.2943-.88-3.4575h-.0314c-.2827,1.1632-.5815,2.2947-.88,3.4575L119.59,49.78h-1.98l-2.1219-7.9836h1.3987l.8488,3.3319c.2987,1.1785.5971,2.4046.88,3.5831h.0314c.2669-1.1471.5657-2.3418.88-3.5046l.9116-3.41h1.98l.9115,3.41c.2988,1.1628.5972,2.3575.88,3.5046h.0314c.2827-1.1785.5814-2.4046.88-3.5831l.8484-3.3319h1.3988L125.2478,49.78Z"/>
    <path d="M135.6906,45.7883c0,2.6088-1.4616,4.2117-3.803,4.2117S128.1,48.3971,128.1,45.7883s1.4459-4.2117,3.7876-4.2117S135.6906,43.18,135.6906,45.7883Zm-6.1447,0c0,1.9017.8959,3.08,2.3417,3.08,1.4613,0,2.3572-1.1786,2.3572-3.08s-.8959-3.08-2.3572-3.08C130.4418,42.7081,129.5459,43.8866,129.5459,45.7883Z"/>
    <path d="M141.8086,41.7808v1.2417c-.1727-.0157-.3769-.0474-.55-.0474-1.5087,0-2.3571.9744-2.3571,2.7347v4.07h-1.3831V41.7965h1.32v1.226h.0314a2.5935,2.5935,0,0,1,2.3571-1.3045A2.4407,2.4407,0,0,1,141.8086,41.7808Z"/>
    <path d="M148.1768,49.78l-3.536-3.9918h-.0314V49.78h-1.3831V38.5906h1.3831v6.5221h.0314l3.222-3.3162h1.7128l-3.5831,3.6146L150,49.78Z"/>
  </g>
</svg>
